<?xml version="1.0" encoding="utf-8"?>
<!-- Svg Vector Icons : http://www.onlinewebfonts.com/icon -->
<!DOCTYPE svg PUBLIC "-//W3C//DTD SVG 1.1//EN" "http://www.w3.org/Graphics/SVG/1.1/DTD/svg11.dtd">
<svg version="1.1" xmlns="http://www.w3.org/2000/svg" xmlns:xlink="http://www.w3.org/1999/xlink" x="0px" y="0px" viewBox="0 0 1000 1000" enable-background="new 0 0 1000 1000" xml:space="preserve">
<metadata> Svg Vector Icons : http://www.onlinewebfonts.com/icon </metadata>
<g><g transform="translate(0.000000,512.000000) scale(0.100000,-0.100000)"><path d="M4629.8,5014.1c-632.4-53.7-1215-214.6-1782.3-492.5c-500.2-245.3-856.7-498.3-1262.9-891.1c-417.8-408.2-722.5-827.9-981.2-1353c-320-653.5-473.4-1266.8-500.2-1993.1c-28.7-826,141.8-1602.2,513.6-2347.6c1138.4-2274.8,3808-3305.9,6169-2384.1c1542.7,601.8,2702.2,1983.5,3026.1,3601c72.8,360.3,88.2,530.9,88.2,967.8c0,249.1-11.5,504-24.9,603.7c-157.2,1102-603.7,2029.5-1345.4,2796.1c-833.7,862.4-1903,1376-3095.1,1487.2C5239.2,5025.6,4808,5029.4,4629.8,5014.1z M5415.5,2632c157.2-61.3,329.6-233.8,394.8-392.9l46-115V226.8v-1897.3l-44.1-109.2c-59.4-145.6-201.2-299-343-369.9l-111.2-57.5h-354.5h-354.5l-111.2,57.5c-141.8,70.9-283.6,224.2-343.1,369.9l-44.1,109.2V226.8v1897.3l44.1,109.2c88.2,216.6,306.6,396.7,534.7,436.9c49.8,9.6,199.3,13.4,331.5,11.5C5254.5,2676,5323.5,2666.5,5415.5,2632z"/></g></g>
</svg>