<?xml version="1.0" standalone="no"?>
<!DOCTYPE svg PUBLIC "-//W3C//DTD SVG 20010904//EN"
 "http://www.w3.org/TR/2001/REC-SVG-20010904/DTD/svg10.dtd">
<svg version="1.0" xmlns="http://www.w3.org/2000/svg"
 width="217.000000pt" height="222.000000pt" viewBox="0 0 217.000000 222.000000"
 preserveAspectRatio="xMidYMid meet">
<metadata>
Created by potrace 1.16, written by Peter Selinger 2001-2019
</metadata>
<g transform="translate(0.000000,222.000000) scale(0.100000,-0.100000)"
fill="#000000" stroke="none">
<path d="M1128 2194 c-117 -28 -248 -112 -326 -208 -35 -44 -37 -44 -84 -39
-65 8 -162 -13 -231 -50 -77 -40 -159 -130 -188 -205 -19 -50 -29 -63 -65 -82
-24 -12 -68 -48 -97 -79 -119 -125 -164 -293 -122 -456 48 -181 205 -323 393
-355 37 -6 143 -9 237 -8 l170 3 0 85 0 85 -205 5 c-181 4 -210 7 -251 26 -67
31 -114 78 -149 146 -40 81 -43 186 -6 263 32 67 100 131 171 160 59 23 59 24
70 77 36 172 184 251 347 184 l57 -23 36 68 c139 265 472 326 690 127 95 -86
133 -171 143 -316 l7 -93 59 -24 c72 -29 140 -92 172 -160 37 -77 34 -182 -6
-263 -35 -68 -82 -115 -149 -146 -41 -18 -70 -22 -251 -26 l-205 -5 0 -85 0
-85 170 -3 c94 -1 200 2 237 8 327 55 503 404 353 699 -31 62 -111 151 -164
183 -20 12 -38 23 -40 24 -1 2 -9 38 -17 81 -40 231 -226 429 -459 488 -73 18
-220 18 -297 -1z"/>
<path d="M1016 1209 l-26 -31 0 -436 0 -437 -115 115 c-104 104 -118 114 -151
114 -69 0 -106 -76 -66 -135 9 -15 100 -108 202 -208 243 -237 206 -236 433
-13 189 186 227 232 227 273 0 43 -40 83 -84 83 -33 0 -47 -10 -151 -114
l-115 -115 0 437 0 436 -26 31 c-20 25 -34 31 -64 31 -30 0 -44 -6 -64 -31z"/>
</g>
</svg>
