<?xml version="1.0" standalone="no"?>
<!DOCTYPE svg PUBLIC "-//W3C//DTD SVG 20010904//EN"
 "http://www.w3.org/TR/2001/REC-SVG-20010904/DTD/svg10.dtd">
<svg version="1.0" xmlns="http://www.w3.org/2000/svg"
 width="219.000000pt" height="221.000000pt" viewBox="0 0 219.000000 221.000000"
 preserveAspectRatio="xMidYMid meet">
<metadata>
Created by potrace 1.16, written by Peter Selinger 2001-2019
</metadata>
<g transform="translate(0.000000,221.000000) scale(0.100000,-0.100000)"
fill="#000000" stroke="none">
<path d="M1155 2194 c-121 -27 -209 -76 -304 -170 l-84 -84 -77 0 c-125 0
-229 -46 -313 -139 -36 -40 -87 -129 -87 -153 0 -7 -19 -24 -42 -37 -57 -33
-131 -103 -168 -160 -176 -275 -29 -654 285 -736 44 -11 112 -15 262 -15 l203
0 0 90 0 90 -164 0 c-238 0 -319 21 -393 103 -149 165 -84 413 129 492 42 16
48 22 54 54 16 96 61 164 135 201 65 34 107 35 193 5 43 -15 79 -25 80 -23 2
1 18 32 37 67 47 89 116 156 208 200 72 34 81 36 181 36 97 0 110 -2 172 -32
166 -78 258 -222 258 -402 l0 -86 53 -19 c307 -108 277 -525 -43 -586 -29 -5
-126 -10 -216 -10 l-164 0 0 -90 0 -90 203 0 c150 0 218 4 262 15 270 71 426
366 334 634 -34 98 -119 205 -204 255 -27 15 -32 27 -46 101 -56 283 -294 488
-583 501 -59 2 -115 -2 -161 -12z"/>
<path d="M1060 1233 c-8 -3 -25 -15 -37 -26 l-23 -20 0 -441 0 -440 -113 112
c-103 101 -118 112 -150 112 -54 0 -92 -36 -92 -89 0 -40 5 -46 200 -241 l200
-200 45 0 45 0 200 200 c195 195 200 201 200 241 0 53 -38 89 -92 89 -32 0
-47 -11 -150 -112 l-113 -112 0 440 0 441 -23 21 c-24 23 -72 35 -97 25z"/>
</g>
</svg>
