<?xml version="1.0" encoding="UTF-8" standalone="no"?>
<svg
   xmlns:dc="http://purl.org/dc/elements/1.1/"
   xmlns:cc="http://creativecommons.org/ns#"
   xmlns:rdf="http://www.w3.org/1999/02/22-rdf-syntax-ns#"
   xmlns:svg="http://www.w3.org/2000/svg"
   xmlns="http://www.w3.org/2000/svg"
   xmlns:sodipodi="http://sodipodi.sourceforge.net/DTD/sodipodi-0.dtd"
   xmlns:inkscape="http://www.inkscape.org/namespaces/inkscape"
   data-name="Layer 1"
   viewBox="0 0 48 60"
   x="0px"
   y="0px"
   version="1.1"
   id="svg82"
   sodipodi:docname="signature.svg"
   inkscape:version="1.0.1 (1.0.1+r74)">
  <metadata
     id="metadata88">
    <rdf:RDF>
      <cc:Work
         rdf:about="">
        <dc:format>image/svg+xml</dc:format>
        <dc:type
           rdf:resource="http://purl.org/dc/dcmitype/StillImage" />
        <dc:title>law solid icons</dc:title>
      </cc:Work>
    </rdf:RDF>
  </metadata>
  <defs
     id="defs86" />
  <sodipodi:namedview
     pagecolor="#ffffff"
     bordercolor="#666666"
     borderopacity="1"
     objecttolerance="10"
     gridtolerance="10"
     guidetolerance="10"
     inkscape:pageopacity="0"
     inkscape:pageshadow="2"
     inkscape:window-width="1920"
     inkscape:window-height="1080"
     id="namedview84"
     showgrid="false"
     inkscape:zoom="14.2"
     inkscape:cx="24"
     inkscape:cy="21.549296"
     inkscape:window-x="0"
     inkscape:window-y="0"
     inkscape:window-maximized="1"
     inkscape:current-layer="svg82" />
  <title
     id="title68">law solid icons</title>
  <polygon
     points="27.92 3.04 27.92 11.03 36.08 11.03 27.92 3.04"
     id="polygon70" />
  <path
     d="M47.22,13.69c-3.55.41-7.51,3.3-10.11,7.8a16.47,16.47,0,0,0-2.36,10.17l6.9-12a1.84,1.84,0,0,1,1.58-.91,1.8,1.8,0,0,1,.91.25,1.81,1.81,0,0,1,.67,2.48l-6.91,12a16.56,16.56,0,0,0,7.63-7.13C48.13,21.85,48.65,17,47.22,13.69Z"
     id="path72" />
  <path
     d="M31.5,40.93a1,1,0,0,0,.5.14,1,1,0,0,0,.88-.51L44.11,21.11a1,1,0,0,0-1.75-1L31.13,39.55A1,1,0,0,0,31.5,40.93Z"
     id="path74" />
  <path
     d="M32,42.69a2.6,2.6,0,0,1-1.31-.35,2.64,2.64,0,0,1-1-3.6l3.54-6.13A17.74,17.74,0,0,1,35.7,20.68l.38-.62V12.65H27.92A1.62,1.62,0,0,1,26.3,11v-8H0V45H36.08v-6.7l-1.8,3.11A2.65,2.65,0,0,1,32,42.69Zm-2.65-5.21H6.73v-2H29.35Zm0-6.6H6.73v-2H29.35Zm0-6.61H6.73v-2H29.35Zm0-6.61H6.73v-2H29.35Z"
     id="path76" />
</svg>
